# xmcd
#
# Track frame offsets: 
#        150
#        10483
#        22493
#        34493
#        47528
#        61630
#        73143
#        85465
#        99290
#        109635
#        122053
#        132993
#
# Disc length: 1949 seconds
#
# Revision: 0
# Processed by: cddbd v1.5.2PL0 Copyright (c) Steve Scherf et al.
# Submitted via: ExactAudioCopy v1.0b3
#
DISCID=a6079b0c
DTITLE=Pat Boone - Best Selection
DYEAR=1900
DGENRE=Blues
TTITLE0=Love Letters In The Sand
TTITLE1=Tie Me Kangaroo Down Sport
TTITLE2=Moody River
TTITLE3=Anastasia
TTITLE4=The Exodus Song
TTITLE5=Speedy Gonzales
TTITLE6=April Love
TTITLE7=I'll Be Home
TTITLE8=Blue Bobby Socks
TTITLE9=I'll See You In My Dreams
TTITLE10=I'll Remenber Tonight
TTITLE11=Friendly Persuasion
EXTD=
EXTT0=
EXTT1=
EXTT2=
EXTT3=
EXTT4=
EXTT5=
EXTT6=
EXTT7=
EXTT8=
EXTT9=
EXTT10=
EXTT11=
PLAYORDER=
